<svg xmlns="http://www.w3.org/2000/svg" version="1.1" xmlns:xlink="http://www.w3.org/1999/xlink"
	xmlns:svgjs="http://svgjs.dev/svgjs" width="1440" height="560" preserveAspectRatio="none" viewBox="0 0 1440 560">
	<g mask="url(&quot;#SvgjsMask1000&quot;)" fill="none">
		<path d="M676.43 144.47a46.98 46.98 0 1 0-89.69-27.99z" stroke="#037b0b"></path>
		<path d="M1096.88 122.19a28.58 28.58 0 1 0-47.74 31.43z" stroke="#e73635"></path>
		<path d="M502.75 128.77L545.68 128.77L545.68 167.9L502.75 167.9z" fill="#037b0b"></path>
		<path d="M710.59 453.29L760.37 453.29L760.37 503.07L710.59 503.07z" stroke="#037b0b"></path>
		<path d="M349.87 519.95 a9.67 9.67 0 1 0 19.34 0 a9.67 9.67 0 1 0 -19.34 0z" stroke="#e73635"></path>
		<path d="M115.12 417.38L148.8 417.38L148.8 470.11L115.12 470.11z" stroke="#037b0b"></path>
		<path d="M1331.88 406.59L1347.15 406.59L1347.15 462.46L1331.88 462.46z" fill="#d3b714"></path>
		<path d="M193.66 35.03a17.72 17.72 0 1 0-31.47-16.3z" stroke="#e73635"></path>
		<path d="M974.49 18.95a40.75 40.75 0 1 0-64.95 49.23z" fill="#e73635"></path>
		<path d="M1329.93 229.38 a47.34 47.34 0 1 0 94.68 0 a47.34 47.34 0 1 0 -94.68 0z" fill="#d3b714"></path>
		<path d="M450.11 53.69L451.43 53.69L451.43 55.01L450.11 55.01z" stroke="#d3b714"></path>
		<path d="M710.42 285.3L746.72 285.3L746.72 321.6L710.42 321.6z" stroke="#e73635"></path>
		<path d="M562.13 15.75L584.38 15.75L584.38 42.85L562.13 42.85z" fill="#d3b714"></path>
		<path d="M482.21 185.23L517.05 185.23L517.05 223.9L482.21 223.9z" fill="#e73635"></path>
		<path d="M784.48 107.78 a41.33 41.33 0 1 0 82.66 0 a41.33 41.33 0 1 0 -82.66 0z" fill="#d3b714"></path>
		<path d="M241 365.44L281.2 365.44L281.2 367.95L241 367.95z" fill="#037b0b"></path>
		<path d="M589.88 212.48L644.25 212.48L644.25 266.85L589.88 266.85z" stroke="#e73635"></path>
		<path d="M437.89 341.49 a49.15 49.15 0 1 0 98.3 0 a49.15 49.15 0 1 0 -98.3 0z" fill="#e73635"></path>
		<path d="M1423.34 261.03L1466.44 261.03L1466.44 304.13L1423.34 304.13z" stroke="#037b0b"></path>
		<path d="M982.46 113.09 a46.15 46.15 0 1 0 92.3 0 a46.15 46.15 0 1 0 -92.3 0z" stroke="#d3b714"></path>
		<path d="M1035.32 241.22L1081.4 241.22L1081.4 287.3L1035.32 287.3z" fill="#d3b714"></path>
		<path d="M802.77 400.13a7.98 7.98 0 1 0 1.07-15.93z" fill="#e73635"></path>
		<path d="M234.71 486.86a19.2 19.2 0 1 0-25.32 28.88z" fill="#037b0b"></path>
		<path d="M163.38 125.34 a54.12 54.12 0 1 0 108.24 0 a54.12 54.12 0 1 0 -108.24 0z" fill="#d3b714"></path>
		<path d="M884.27 462.62L892.26 462.62L892.26 470.61L884.27 470.61z" fill="#e73635"></path>
		<path d="M795.1 102.56L849.94 102.56L849.94 157.4L795.1 157.4z" fill="#d3b714"></path>
		<path d="M918.61 472.19a46.71 46.71 0 1 0 32.81 87.47z" fill="#d3b714"></path>
		<path d="M1080.99 267.74L1127.28 267.74L1127.28 314.03L1080.99 314.03z" stroke="#037b0b"></path>
		<path d="M985.53 422.78a40.36 40.36 0 1 0 78.68 18.04z" fill="#e73635"></path>
		<path d="M1077.62 5.1 a40.55 40.55 0 1 0 81.1 0 a40.55 40.55 0 1 0 -81.1 0z" stroke="#d3b714"></path>
		<path d="M577.88 334.59L608.14 334.59L608.14 387.38L577.88 387.38z" fill="#e73635"></path>
		<path d="M193.06 162.6 a5.62 5.62 0 1 0 11.24 0 a5.62 5.62 0 1 0 -11.24 0z" fill="#d3b714"></path>
		<path d="M498.15 427.6a5.99 5.99 0 1 0-11.89-1.47z" fill="#e73635"></path>
	</g>
	<defs>
		<mask id="SvgjsMask1000">
			<rect width="1440" height="560" fill="#ffffff"></rect>
		</mask>
	</defs>
</svg>
